<svg width="25" height="18" viewBox="0 0 25 18" fill="none" xmlns="http://www.w3.org/2000/svg">
<path d="M8.1399 6.9332L8.48954 6.94904L8.48955 6.94894L8.48956 6.94854L8.48964 6.94698L8.48991 6.9408L8.49101 6.91663L8.49518 6.82422L8.51025 6.4886C8.52282 6.2075 8.53982 5.82457 8.55754 5.4173C8.59292 4.6041 8.63136 3.68984 8.64296 3.29784C8.65441 2.91103 8.68883 2.45189 8.80339 2.10329C8.86046 1.92965 8.92803 1.81367 8.99609 1.74669C9.05318 1.69051 9.11549 1.66198 9.21188 1.66744C9.21847 1.66781 9.22506 1.668 9.23165 1.668C9.31249 1.668 9.36784 1.68466 9.41267 1.71313C9.45904 1.74258 9.5207 1.80164 9.58498 1.92918C9.72033 2.19773 9.83192 2.6976 9.86567 3.58534C9.89978 4.48248 9.92893 5.32221 9.94955 5.9377C9.95985 6.24543 9.96803 6.49706 9.97363 6.67174L9.98004 6.87342L9.98169 6.92608L9.98211 6.93951L9.98221 6.94289L9.98224 6.94374L9.98224 6.94395L9.98224 6.944L10.3321 6.9332L9.98225 6.94401C9.98808 7.13268 10.1425 7.28273 10.3312 7.2832C10.52 7.28366 10.6751 7.13437 10.6819 6.94573L10.7617 4.71689C10.7955 4.00252 10.9235 3.67715 11.0352 3.53255C11.1224 3.41964 11.2213 3.38847 11.3851 3.38847C11.4517 3.38847 11.4902 3.40034 11.5199 3.41888C11.5506 3.43797 11.6045 3.48469 11.6647 3.61059C11.7925 3.87795 11.9051 4.4088 11.9288 5.4268L11.9118 11.5598C11.9095 11.6108 11.9072 11.6612 11.9049 11.7112C11.8728 12.4148 11.8454 13.014 11.7785 13.5367C11.7069 14.0964 11.5929 14.5391 11.3975 14.8995C11.3944 14.9053 11.3914 14.9112 11.3886 14.9172C11.3361 15.0287 11.264 15.1882 11.1801 15.3737C10.9533 15.8756 10.6403 16.568 10.3958 17.0167L5.1267 17.0167C4.57915 16.0033 4.00323 15.0609 3.63027 14.4988C3.14359 13.7023 2.35787 12.0189 1.6849 10.5109C1.34975 9.75986 1.04571 9.0596 0.825437 8.54702C0.715317 8.29077 0.626172 8.08153 0.564586 7.93641L0.493711 7.76901L0.475325 7.72541L0.470666 7.71434L0.469599 7.71181L0.469513 7.7116L0.469503 7.71158L0.469401 7.71133L0.469327 7.71116L0.469233 7.71091L0.469218 7.7109L0.46915 7.71074L0.466511 7.70408C0.463868 7.69734 0.459669 7.68639 0.454373 7.67175C0.443747 7.64239 0.428907 7.59875 0.413407 7.54502C0.381855 7.43563 0.350263 7.29359 0.342193 7.14924C0.333971 7.00219 0.351603 6.87768 0.395207 6.78545C0.43317 6.70515 0.498243 6.63125 0.636428 6.58285C0.722568 6.55268 0.817404 6.55875 0.934896 6.61176C1.05771 6.66717 1.18638 6.76659 1.30982 6.8905C1.43113 7.01227 1.53399 7.14407 1.60734 7.24735C1.64365 7.29846 1.67184 7.34134 1.69058 7.37078C1.69992 7.38547 1.70686 7.39674 1.71122 7.40391L1.71579 7.4115L1.71593 7.41175L3.21814 10.0476C3.29676 10.1856 3.45838 10.2533 3.61186 10.2126C3.76534 10.172 3.87222 10.0331 3.87222 9.87432L3.87222 4.36203C3.87222 3.68819 3.94152 3.20001 4.0523 2.89113C4.16175 2.58595 4.26635 2.55941 4.29514 2.55685C4.38537 2.55862 4.46129 2.59487 4.54527 2.72219C4.64172 2.8684 4.72427 3.10488 4.79042 3.4397L5.27648 6.98079C5.30124 7.16121 5.46021 7.29249 5.64205 7.28269C5.8239 7.2729 5.96784 7.1253 5.97308 6.94327L5.62323 6.9332L5.97308 6.94325L5.97308 6.94317L5.97309 6.94283L5.97313 6.94143L5.9733 6.9358L5.97396 6.91353L5.97657 6.82747C5.97889 6.7526 5.98233 6.64401 5.98685 6.50934C5.99589 6.23996 6.00921 5.8664 6.02634 5.44971C6.06068 4.61418 6.11005 3.6127 6.17041 2.92871C6.23217 2.22881 6.30447 1.69917 6.44377 1.34704C6.51138 1.17616 6.58469 1.07459 6.6559 1.01603C6.72012 0.963206 6.80294 0.928153 6.93318 0.928153C7.07768 0.928153 7.16395 0.961892 7.22247 1.00363C7.28393 1.04747 7.34528 1.12207 7.40145 1.25262C7.52101 1.53051 7.57541 1.95541 7.62114 2.54199C7.66533 3.1088 7.70758 4.20506 7.73887 5.16754C7.75445 5.64706 7.76724 6.0907 7.77613 6.41449C7.78058 6.57637 7.78405 6.70826 7.7864 6.79964L7.78909 6.90502L7.78978 6.93247L7.78995 6.93945L7.78999 6.9412L7.79 6.94163L7.79 6.94174L8.1399 6.9332ZM8.1399 6.9332L8.48954 6.94907C8.48099 7.13742 8.32478 7.28515 8.13625 7.28318C7.94771 7.28121 7.79462 7.13025 7.79001 6.94177L8.1399 6.9332Z" fill="white" stroke="#363A45" stroke-width="0.7" stroke-linejoin="round"/>
<path d="M16.8406 6.9332L16.4909 6.94904L16.4909 6.94894L16.4909 6.94854L16.4908 6.94698L16.4906 6.9408L16.4895 6.91663L16.4853 6.82422L16.4702 6.4886C16.4576 6.2075 16.4406 5.82457 16.4229 5.4173C16.3875 4.6041 16.3491 3.68984 16.3375 3.29784C16.3261 2.91103 16.2916 2.45189 16.1771 2.10329C16.12 1.92965 16.0524 1.81367 15.9844 1.74669C15.9273 1.69051 15.865 1.66198 15.7686 1.66744C15.762 1.66781 15.7554 1.668 15.7488 1.668C15.668 1.668 15.6126 1.68466 15.5678 1.71313C15.5214 1.74258 15.4598 1.80164 15.3955 1.92918C15.2601 2.19773 15.1485 2.6976 15.1148 3.58534C15.0807 4.48248 15.0515 5.32221 15.0309 5.9377C15.0206 6.24543 15.0124 6.49706 15.0068 6.67174L15.0004 6.87342L14.9988 6.92608L14.9984 6.93951L14.9983 6.94289L14.9982 6.94374L14.9982 6.94395L14.9982 6.944L14.6484 6.9332L14.9982 6.94401C14.9924 7.13268 14.838 7.28273 14.6493 7.2832C14.4605 7.28366 14.3054 7.13437 14.2986 6.94573L14.2187 4.71689C14.185 4.00252 14.0569 3.67715 13.9453 3.53255C13.858 3.41964 13.7591 3.38847 13.5954 3.38847C13.5288 3.38847 13.4903 3.40034 13.4605 3.41888C13.4299 3.43797 13.376 3.48469 13.3158 3.61059C13.188 3.87795 13.0754 4.4088 13.0517 5.4268L13.0687 11.5598C13.071 11.6108 13.0733 11.6612 13.0756 11.7112C13.1077 12.4148 13.1351 13.014 13.202 13.5367C13.2736 14.0964 13.3876 14.5391 13.5829 14.8995C13.5861 14.9053 13.5891 14.9112 13.5919 14.9172C13.6444 15.0287 13.7165 15.1882 13.8003 15.3737C14.0272 15.8756 14.3401 16.568 14.5847 17.0167L19.8538 17.0167C20.4013 16.0033 20.9772 15.0609 21.3502 14.4988C21.8369 13.7023 22.6226 12.0189 23.2956 10.5109C23.6307 9.75986 23.9348 9.0596 24.155 8.54702C24.2652 8.29077 24.3543 8.08153 24.4159 7.93641L24.4868 7.76901L24.5051 7.72541L24.5098 7.71434L24.5109 7.71181L24.511 7.7116L24.511 7.71158L24.5111 7.71133L24.5111 7.71116L24.5112 7.71091L24.5113 7.7109L24.5113 7.71074L24.514 7.70408C24.5166 7.69734 24.5208 7.68639 24.5261 7.67175C24.5367 7.64239 24.5516 7.59875 24.5671 7.54502C24.5986 7.43563 24.6302 7.29359 24.6383 7.14924C24.6465 7.00219 24.6289 6.87768 24.5853 6.78545C24.5473 6.70515 24.4822 6.63125 24.344 6.58285C24.2579 6.55268 24.1631 6.55875 24.0456 6.61176C23.9228 6.66717 23.7941 6.76659 23.6707 6.8905C23.5493 7.01227 23.4465 7.14407 23.3731 7.24735C23.3368 7.29846 23.3086 7.34134 23.2899 7.37078C23.2805 7.38547 23.2736 7.39674 23.2692 7.40391L23.2647 7.4115L23.2645 7.41175L21.7623 10.0476C21.6837 10.1856 21.5221 10.2533 21.3686 10.2126C21.2151 10.172 21.1082 10.0331 21.1082 9.87432L21.1082 4.36203C21.1082 3.68819 21.0389 3.20001 20.9282 2.89113C20.8187 2.58595 20.7141 2.55941 20.6853 2.55685C20.5951 2.55862 20.5192 2.59487 20.4352 2.72219C20.3387 2.8684 20.2562 3.10488 20.19 3.4397L19.704 6.98079C19.6792 7.16121 19.5203 7.29249 19.3384 7.28269C19.1566 7.2729 19.0126 7.1253 19.0074 6.94327L19.3572 6.9332L19.0074 6.94325L19.0074 6.94317L19.0074 6.94283L19.0073 6.94143L19.0072 6.9358L19.0065 6.91353L19.0039 6.82747C19.0016 6.7526 18.9981 6.64401 18.9936 6.50934C18.9846 6.23996 18.9713 5.8664 18.9541 5.44971C18.9198 4.61418 18.8704 3.6127 18.8101 2.92871C18.7483 2.22881 18.676 1.69917 18.5367 1.34704C18.4691 1.17616 18.3958 1.07459 18.3246 1.01603C18.2603 0.963206 18.1775 0.928153 18.0473 0.928153C17.9028 0.928153 17.8165 0.961892 17.758 1.00363C17.6965 1.04747 17.6352 1.12207 17.579 1.25262C17.4595 1.53051 17.4051 1.95541 17.3593 2.54199C17.3151 3.1088 17.2729 4.20506 17.2416 5.16754C17.226 5.64706 17.2132 6.0907 17.2043 6.41449C17.1999 6.57637 17.1964 6.70826 17.1941 6.79964L17.1914 6.90502L17.1907 6.93247L17.1905 6.93945L17.1905 6.9412L17.1905 6.94163L17.1905 6.94174L16.8406 6.9332ZM16.8406 6.9332L16.4909 6.94907C16.4995 7.13742 16.6557 7.28515 16.8442 7.28318C17.0328 7.28121 17.1858 7.13025 17.1905 6.94177L16.8406 6.9332Z" fill="white" stroke="#363A45" stroke-width="0.7" stroke-linejoin="round"/>
<path d="M12.5399 15.4937C12.376 15.5916 12.2402 15.6716 12.1411 15.7296C12.0385 15.6659 11.8959 15.5769 11.7234 15.4681C11.3557 15.236 10.8529 14.9139 10.3119 14.5534C9.21896 13.8252 8.00594 12.9636 7.41567 12.3723C7.40804 12.3646 7.40005 12.3573 7.39173 12.3504C6.99239 12.0185 6.66846 11.6077 6.44068 11.1441C6.21415 10.6831 6.08768 10.18 6.06933 9.66671C6.08181 8.99664 6.30009 8.34415 6.69577 7.79522C7.09312 7.24399 7.65042 6.82346 8.29362 6.58936C8.93681 6.35527 9.63535 6.31868 10.2966 6.48409C10.9579 6.6495 11.5508 7.00911 11.9968 7.51519C12.0629 7.59016 12.1585 7.63361 12.2595 7.63454C12.3606 7.63547 12.4572 7.5938 12.5251 7.52007C12.9862 7.01932 13.5899 6.66727 14.256 6.51041C14.9221 6.35356 15.6191 6.39931 16.2547 6.64125C16.8902 6.88318 17.4346 7.30995 17.8157 7.86504C18.1949 8.41737 18.3948 9.07101 18.3889 9.74026C18.3511 10.253 18.2078 10.7538 17.9676 11.2122C17.7258 11.6736 17.3911 12.0821 16.9839 12.4127C16.977 12.4184 16.9702 12.4243 16.9637 12.4305C16.2624 13.0949 15.0211 13.9426 13.9336 14.6348C13.3941 14.9782 12.8996 15.2788 12.5399 15.4937Z" fill="#00C65E" stroke="white" stroke-width="0.7" stroke-linejoin="round"/>
</svg>
