<svg width="14" height="18" viewBox="0 0 14 18" fill="none" xmlns="http://www.w3.org/2000/svg">
<rect x="0.340234" y="0.928125" width="13.3" height="16.3" rx="0.434713" fill="white" stroke="#00C65E" stroke-width="0.7"/>
<path d="M8.65916 15.4954V14.7382H8.12207V14.1927H8.65916V13.6665H8.12207V12.9863H8.65916V10.9136H10.0375C10.6199 10.9136 11.047 11.0312 11.3187 11.2665C11.5948 11.4975 11.7329 11.8269 11.7329 12.2547C11.7329 12.52 11.6725 12.7596 11.5517 12.9735C11.4309 13.1874 11.2389 13.3564 10.9758 13.4804C10.7169 13.6045 10.3761 13.6665 9.95336 13.6665H9.48745V14.1927H10.5099V14.7382H9.48745V15.4954H8.65916ZM9.86276 12.9863C10.1777 12.9863 10.4279 12.9328 10.6134 12.8259C10.7989 12.7189 10.8917 12.5371 10.8917 12.2804C10.8917 12.0494 10.8162 11.8783 10.6652 11.767C10.5185 11.6515 10.292 11.5938 9.98571 11.5938H9.48745V12.9863H9.86276Z" fill="#00C65E"/>
<rect x="2.54883" y="3.28027" width="8.8824" height="1.06952" rx="0.534759" fill="#00C65E"/>
<rect x="2.54883" y="5.91162" width="8.8824" height="1.06952" rx="0.534759" fill="#00C65E"/>
<rect x="2.54883" y="8.54297" width="6.70927" height="1.06952" rx="0.534759" fill="#00C65E"/>
<rect x="2.54883" y="11.1748" width="4.7258" height="1.06952" rx="0.534759" fill="#00C65E"/>
<rect x="2.54883" y="13.8057" width="2.52137" height="1.06952" rx="0.534759" fill="#00C65E"/>
</svg>
