<svg width="17" height="18" viewBox="0 0 17 18" fill="none" xmlns="http://www.w3.org/2000/svg">
<path d="M11.35 15.3984C11.5841 15.7615 11.959 16.1745 12.2791 16.5001C12.4841 16.7086 12.3384 17.0781 12.046 17.0781H4.93626C4.64386 17.0781 4.49819 16.7086 4.70317 16.5001C5.02326 16.1745 5.39811 15.7615 5.6323 15.3984C6.10767 14.6615 6.26927 13.5068 6.26927 13.5068H10.713C10.713 13.5068 10.8746 14.6615 11.35 15.3984Z" fill="white" stroke="#363A45" stroke-width="0.7"/>
<mask id="path-2-inside-1_7420_3604" fill="white">
<rect x="1.43652" y="3.17383" width="14.1103" height="11.2227" rx="0.636856"/>
</mask>
<rect x="1.43652" y="3.17383" width="14.1103" height="11.2227" rx="0.636856" fill="white" stroke="#363A45" stroke-width="1.4" mask="url(#path-2-inside-1_7420_3604)"/>
<path d="M3.83405 12.8185C2.96619 12.6006 2.70996 11.6533 2.70996 10.8355C2.70996 7.87035 3.62191 8.11981 3.5916 6.54726C3.55027 4.43473 4.57518 4.24526 4.95263 4.33684C9.2341 5.41363 11.6421 4.65261 11.6421 4.65261C13.2951 4.28 9.989 7.71562 11.6421 11.2207C12.5568 13.1975 5.27223 13.1785 3.83405 12.8185Z" fill="#00C65E"/>
<mask id="path-4-inside-2_7420_3604" fill="white">
<rect x="1.43652" y="0.578125" width="14.1103" height="3.02122" rx="0.636856"/>
</mask>
<rect x="1.43652" y="0.578125" width="14.1103" height="3.02122" rx="0.636856" fill="white" stroke="#363A45" stroke-width="1.4" mask="url(#path-4-inside-2_7420_3604)"/>
<path d="M1.62665 3.11356C1.6647 2.99479 1.77512 2.91421 1.89984 2.91421H15.0806C15.2053 2.91421 15.3158 2.99479 15.3538 3.11356L16.3907 6.3506C16.45 6.53571 16.3119 6.72496 16.1175 6.72496H0.862959C0.668581 6.72496 0.530481 6.53571 0.589776 6.3506L1.62665 3.11356Z" fill="white" stroke="#363A45" stroke-width="0.7"/>
<rect x="8.12891" y="2.66064" width="0.722434" height="4.16762" fill="#363A45"/>
<path d="M11.9463 2.66064H12.6687L13.3912 6.82826H12.6687L11.9463 2.66064Z" fill="#363A45"/>
<path d="M5.0332 2.66064H4.31077L3.58833 6.82826H4.31077L5.0332 2.66064Z" fill="#363A45"/>
</svg>
