<svg width="13" height="13" viewBox="0 0 13 13" fill="none" xmlns="http://www.w3.org/2000/svg">
<path fill-rule="evenodd" clip-rule="evenodd" d="M1.94727 12.0908C1.94727 12.0908 0.947266 12.0908 0.947266 11.0908C0.947266 10.0908 1.94727 7.09082 6.94727 7.09082C11.9473 7.09082 12.9473 10.0908 12.9473 11.0908C12.9473 12.0908 11.9473 12.0908 11.9473 12.0908H1.94727ZM6.94727 6.09082C7.74292 6.09082 8.50598 5.77475 9.06859 5.21214C9.6312 4.64953 9.94727 3.88647 9.94727 3.09082C9.94727 2.29517 9.6312 1.53211 9.06859 0.9695C8.50598 0.406891 7.74292 0.0908203 6.94727 0.0908203C6.15162 0.0908203 5.38855 0.406891 4.82595 0.9695C4.26334 1.53211 3.94727 2.29517 3.94727 3.09082C3.94727 3.88647 4.26334 4.64953 4.82595 5.21214C5.38855 5.77475 6.15162 6.09082 6.94727 6.09082Z" fill="#00C65E"/>
</svg>
